PathFileType	4	(X/Y/Z)	D:\TRACE\spotREDO_2-26-24\spot_Both_Motion_3_10-platform.trc
DataRate	CameraRate	NumFrames	NumMarkers	Units	OrigDataRate	OrigDataStartFrame	OrigNumFrames
100.00	100.00	      36	5	mm	100.00	876	      7000
Frame#	Time	Left_Front			Right_Front			Left_Aft			Right_Aft			Post			
		X1	Y1	Z1	X2	Y2	Z2	X3	Y3	Z3	X4	Y4	Z4	X5	Y5	Z5	

876	8.750	-699.46112	-33.47868	-582.65344	714.94110	-20.40945	-497.99689	-771.65881	34.01788	634.21722	797.76868	41.47576	639.74994	-5.39794	572.76764	-1019.04016	
877	8.760	-699.34448	-33.53357	-582.66956	715.07263	-20.50462	-498.07919	-771.38464	34.08617	634.09326	797.94751	41.47931	639.57428	-5.01684	572.57813	-1019.32324	
878	8.770	-699.23450	-33.56580	-582.62811	715.25305	-20.53910	-498.11255	-771.17334	34.15794	634.03253	798.03949	41.61933	639.49225	-4.66242	572.38397	-1019.60388	
879	8.780	-699.12915	-33.61673	-582.59308	715.47656	-20.95045	-498.06226	-770.99170	34.29219	634.03680	798.30286	41.82138	639.35449	-4.38169	571.95154	-1020.01147	
880	8.790	-698.91791	-33.82221	-582.56342	715.76050	-21.00289	-497.97733	-770.81860	34.38701	634.04907	798.54913	42.01643	639.32397	-4.37208	571.76544	-1020.08783	
881	8.800	-698.55554	-34.10101	-582.70880	715.85205	-21.14476	-498.00919	-770.51764	34.49372	634.07135	798.73285	42.19776	639.26288	-4.13916	571.58075	-1020.17407	
882	8.810	-698.53607	-34.17981	-582.67157	715.99719	-21.22275	-498.21265	-770.31561	34.73574	634.05817	798.77026	42.24151	639.22766	-3.78725	571.23108	-1020.34186	
883	8.820	-698.42395	-34.29732	-582.66425	716.32172	-21.48090	-498.29294	-770.28619	34.71961	633.86035	798.87506	42.38321	639.22650	-3.36185	570.88940	-1020.16364	
884	8.830	-698.16669	-34.52519	-582.74286	716.80396	-21.56375	-498.32291	-770.03156	34.93166	633.78845	799.07324	42.55585	639.24780	-3.27587	570.56818	-1020.17993	
885	8.840	-697.91089	-34.67413	-582.77509	717.08838	-21.66668	-498.33606	-769.72876	35.24992	633.67389	799.44727	42.91967	639.35736	-3.45768	570.28186	-1020.50000	
886	8.850	-697.64758	-34.74890	-582.84662	717.13171	-21.70624	-498.45370	-769.46368	35.37529	633.63934	799.89386	43.12096	639.28528	-3.28630	570.09094	-1020.61768	
887	8.860	-697.33698	-34.89757	-583.06366	717.20996	-21.75652	-498.45578	-769.15460	35.48826	633.63458	800.29285	43.24588	639.12463	-3.22431	569.89758	-1020.80127	
888	8.870	-697.01648	-35.26544	-583.04437	717.50787	-22.04648	-498.38940	-769.00464	35.60074	633.63843	800.52399	43.30595	638.99591	-2.98819	569.65625	-1021.33618	
889	8.880	-696.82526	-35.36234	-583.06403	717.67145	-22.06433	-498.40872	-768.78131	35.67061	633.60614	800.79865	43.48911	638.87415	-2.71495	569.45294	-1021.66913	
890	8.890	-696.60370	-35.41972	-582.99597	717.92194	-22.14646	-498.33563	-768.75757	35.80866	633.49097	801.00616	43.63293	638.88135	-2.35528	569.21814	-1022.04358	
891	8.900	-696.45428	-35.50005	-583.04425	718.18781	-22.19912	-498.33356	-768.52802	36.09074	633.42334	801.11346	43.69528	638.84100	-2.28867	569.01324	-1022.21698	
892	8.910	-696.18219	-35.65484	-583.04291	718.33069	-22.28087	-498.31863	-768.25891	36.36697	633.40466	801.16693	43.72439	638.77771	-1.95924	568.69452	-1022.36157	
893	8.920	-695.92743	-35.88039	-583.10785	718.49170	-22.45490	-498.43213	-768.06757	36.56193	633.33722	801.21368	43.79892	638.78455	-1.63335	568.40137	-1022.47406	
894	8.930	-695.74689	-35.99920	-583.09302	718.76678	-22.67122	-498.52310	-767.80524	36.65363	633.28729	801.47778	43.92120	638.74750	-1.56651	568.21960	-1022.43109	
895	8.940	-695.59839	-36.03902	-583.20471	719.13220	-22.96919	-498.57416	-767.68970	36.84815	633.19885	801.66882	44.12392	638.66168	-1.14800	567.97253	-1022.30035	
896	8.950	-695.37817	-36.13962	-583.20709	719.31342	-23.04203	-498.59299	-767.41425	36.98440	633.20294	802.01575	44.33124	638.48999	-0.83319	567.78992	-1022.39423	
897	8.960	-695.07605	-36.39406	-583.27759	719.60651	-23.18400	-498.52029	-767.20514	37.16063	633.14856	802.30505	44.62978	638.46332	-0.58027	567.57025	-1022.64819	
898	8.970	-694.91077	-36.58310	-583.27899	719.82068	-23.32207	-498.56601	-766.97754	37.28369	633.06750	802.61224	44.77147	638.39526	-0.31659	567.10608	-1022.94653	
899	8.980	-694.67242	-36.75358	-583.26355	719.88153	-23.29780	-498.71701	-766.79590	37.51158	633.02295	802.90808	44.95816	638.36505	-0.39788	566.47711	-1023.28186	
900	8.990	-694.30383	-36.98596	-583.24878	719.99902	-23.42235	-498.81171	-766.50635	37.70580	633.01196	803.18683	45.19754	638.24432	-0.38034	566.27679	-1023.47058	
901	9.000	-694.09497	-37.11033	-583.30524	720.19873	-23.54890	-498.77252	-766.29834	37.83145	633.02533	803.36316	45.40429	638.16785	-0.12071	566.06561	-1023.71881	
902	9.010	-693.87524	-37.30904	-583.36523	720.43726	-23.72286	-498.81027	-766.16425	37.97228	633.01318	803.45715	45.51500	638.12195	0.02293	565.86035	-1023.99854	
903	9.020	-693.62360	-37.43769	-583.38800	720.60437	-23.95671	-498.84143	-765.96948	38.13129	632.92944	803.52081	45.58812	638.12091	0.39962	565.65436	-1024.52002	
904	9.030	-693.49969	-37.57290	-583.42688	721.05322	-24.32740	-498.80350	-765.81604	38.23795	632.90253	803.65820	45.72822	638.08221	0.55998	565.50665	-1024.80713	
905	9.040	-693.27948	-37.75439	-583.55084	721.05157	-24.29459	-498.84644	-765.63153	38.32877	632.79498	803.76685	45.83541	638.05933	0.82432	565.21490	-1025.04565	
906	9.050	-693.17810	-37.81338	-583.59570	721.24902	-24.33011	-498.88455	-765.31360	38.46280	632.76270	803.90308	45.92426	637.99231	1.07859	564.93939	-1025.07715	
907	9.060	-693.01965	-37.94062	-583.61627	721.48547	-24.43911	-498.87848	-765.07092	38.70984	632.74567	804.11615	46.01225	637.98108	1.24928	564.72552	-1025.11340	
908	9.070	-692.94379	-38.04320	-583.64294	721.73334	-24.50428	-498.86560	-764.87109	38.72690	632.72266	804.36945	46.25792	637.94067	1.35328	564.57434	-1025.03833	
909	9.080	-692.82147	-38.10820	-583.70007	721.98871	-24.48158	-498.98441	-764.87109	38.80800	632.59241	804.62439	46.54437	637.98065	1.52143	564.42535	-1024.95850	
910	9.090	-692.58099	-38.16257	-583.71124	722.20221	-24.88908	-498.98007	-764.58258	39.18864	632.56909	804.85571	46.42132	637.96393	1.72756	564.32410	-1024.94690	
911	9.100	-692.39807	-38.29100	-583.67157	722.24078	-24.69291	-499.06384	-764.36273	39.16832	632.53302	805.11328	46.60243	637.99457	2.15404	564.20276	-1024.80896	
